<svg width="126" height="24" viewBox="0 0 126 24" fill="none" xmlns="http://www.w3.org/2000/svg">
<path d="M115.284 18.3064C115.284 18.0545 115.373 17.7648 115.524 17.5632L119.038 12.5624L115.398 7.59928C115.259 7.41033 115.158 7.08282 115.158 6.83089C115.158 6.28923 115.599 5.84835 116.154 5.84835C116.569 5.84835 116.922 6.07509 117.224 6.52857L120.21 10.9626H120.348L123.334 6.54117C123.649 6.07509 123.964 5.86095 124.392 5.86095C124.959 5.86095 125.362 6.27664 125.362 6.85608C125.362 7.09542 125.286 7.32216 125.135 7.5363L121.52 12.5624L125.148 17.5254C125.299 17.727 125.4 18.0293 125.4 18.2812C125.4 18.8355 124.959 19.289 124.417 19.289C123.989 19.289 123.611 19.0496 123.321 18.6087L120.348 14.1621H120.21L117.313 18.5836C116.998 19.0622 116.67 19.289 116.28 19.289C115.725 19.289 115.284 18.8481 115.284 18.3064Z" fill="white"/>
<path d="M96.8052 19.2888C96.1879 19.2888 95.7345 18.8983 95.7345 18.0795V2.19512C95.7345 1.37634 96.1879 0.98584 96.8052 0.98584C97.4224 0.98584 97.8885 1.37634 97.8885 2.19512V18.0795C97.8885 18.8983 97.4224 19.2888 96.8052 19.2888Z" fill="white"/>
<path d="M87.068 19.3769C85.2037 19.3769 83.7299 18.5581 83.1378 17.2103H83.0245V18.1047C83.0245 18.8605 82.6466 19.2888 81.9789 19.2888C81.3239 19.2888 80.946 18.8479 80.946 18.0795V2.19512C80.946 1.43932 81.3491 0.98584 82.0293 0.98584C82.7095 0.98584 83.1126 1.43932 83.1126 2.19512V8.01476H83.226C83.6291 6.64173 85.2163 5.70958 87.1436 5.70958C90.2549 5.70958 92.22 7.8888 92.22 11.3655V13.7084C92.22 17.1977 90.2297 19.3769 87.068 19.3769ZM83.1126 13.7966C83.1126 15.938 84.599 17.4874 86.6775 17.4874C88.8063 17.4874 90.0156 15.9506 90.0156 13.2802V11.9071C90.0156 9.19885 88.7811 7.59907 86.6271 7.59907C84.4731 7.59907 83.1126 9.13586 83.1126 11.567V13.7966Z" fill="white"/>
<path d="M75.0129 17.3994C74.2193 18.6842 72.8715 19.377 71.1961 19.377C68.6138 19.377 66.8755 17.7395 66.8755 15.3083C66.8755 12.9024 68.6264 11.4034 71.5362 11.4034H75.0381V10.1185C75.0381 8.41796 74.0178 7.54879 72.1157 7.54879C70.9946 7.54879 70.2388 7.93929 69.4452 8.84625C69.1429 9.19895 68.8531 9.32492 68.4626 9.32492C67.9588 9.32492 67.6187 8.98481 67.6187 8.46835C67.6187 7.72514 68.1351 6.99454 69.1932 6.3899C69.9616 5.94902 70.9568 5.70968 72.2542 5.70968C75.4412 5.70968 77.2047 7.27167 77.2047 10.1059V18.0922C77.2047 18.848 76.8142 19.2889 76.1466 19.2889C75.5042 19.2889 75.1263 18.8606 75.1011 18.1426V17.3994H75.0129ZM69.0925 15.2579C69.0925 16.631 70.1758 17.5631 71.7881 17.5631C73.6147 17.5631 75.0381 16.3035 75.0381 14.6533V13.1543H71.6496C70.0246 13.1543 69.0925 13.9101 69.0925 15.2579Z" fill="white"/>
<path d="M59.7836 15.6486V7.76314H58.8263C58.2091 7.76314 57.8186 7.42303 57.8186 6.85618C57.8186 6.28934 58.1965 5.93663 58.8263 5.93663H59.7962V3.75741C59.7962 3.00161 60.1993 2.56073 60.867 2.56073C61.5472 2.56073 61.9503 3.00161 61.9503 3.75741V5.93663H63.7264C64.3562 5.93663 64.7341 6.28934 64.7341 6.85618C64.7341 7.42303 64.3436 7.76314 63.7264 7.76314H61.9629V15.6738C61.9629 17.0847 62.3156 17.5003 63.5374 17.5003C63.8902 17.5003 64.1421 17.4626 64.3814 17.4626C64.8727 17.4626 65.2128 17.7775 65.2128 18.2687C65.2128 18.6214 65.049 18.9112 64.6585 19.1001C64.3058 19.2765 63.8146 19.3646 63.0966 19.3646C60.7032 19.3646 59.7836 18.4073 59.7836 15.6486Z" fill="white"/>
<path d="M46.5572 22.7907C46.5572 23.5465 46.1541 24 45.4739 24C44.7937 24 44.3906 23.5465 44.3906 22.7907V7.00714C44.3906 6.23874 44.7685 5.79786 45.4235 5.79786C46.0785 5.79786 46.4564 6.22614 46.4564 6.98194V8.02746H46.5698C47.1114 6.59145 48.6482 5.70968 50.5503 5.70968C53.6617 5.70968 55.6268 7.9015 55.6268 11.3656V13.7085C55.6268 17.1978 53.6365 19.377 50.4747 19.377C48.6482 19.377 47.2752 18.596 46.6706 17.2104H46.5572V22.7907ZM46.5572 13.8471C46.5572 16.0011 47.9932 17.4875 50.0716 17.4875C52.2131 17.4875 53.4475 15.9382 53.4475 13.2551V11.8191C53.4475 9.12337 52.2131 7.59918 50.0087 7.59918C47.8798 7.59918 46.5572 9.06039 46.5572 11.4789V13.8471Z" fill="white"/>
<path d="M38.4576 17.3994C37.6641 18.6842 36.3162 19.377 34.6409 19.377C32.0586 19.377 30.3202 17.7395 30.3202 15.3083C30.3202 12.9024 32.0712 11.4034 34.981 11.4034H38.4828V10.1185C38.4828 8.41796 37.4625 7.54879 35.5604 7.54879C34.4393 7.54879 33.6835 7.93929 32.8899 8.84625C32.5876 9.19895 32.2979 9.32492 31.9074 9.32492C31.4035 9.32492 31.0634 8.98481 31.0634 8.46835C31.0634 7.72514 31.5799 6.99454 32.638 6.3899C33.4064 5.94902 34.4015 5.70968 35.699 5.70968C38.8859 5.70968 40.6495 7.27167 40.6495 10.1059V18.0922C40.6495 18.848 40.259 19.2889 39.5913 19.2889C38.9489 19.2889 38.571 18.8606 38.5458 18.1426V17.3994H38.4576ZM32.5372 15.2579C32.5372 16.631 33.6205 17.5631 35.2329 17.5631C37.0594 17.5631 38.4828 16.3035 38.4828 14.6533V13.1543H35.0943C33.4694 13.1543 32.5372 13.9101 32.5372 15.2579Z" fill="white"/>
<path d="M24.9541 17.0717C24.5762 18.407 22.9134 19.3769 20.9609 19.3769C17.8621 19.3769 15.8593 17.1977 15.8593 13.8722V11.2269C15.8593 7.8888 17.9125 5.70958 21.0239 5.70958C22.8756 5.70958 24.3368 6.52836 24.8659 7.8762H24.9667V2.19512C24.9667 1.42672 25.3697 0.98584 26.05 0.98584C26.7302 0.98584 27.1333 1.42672 27.1333 2.19512V18.0795C27.1333 18.8479 26.768 19.2888 26.1004 19.2888C25.4453 19.2888 25.08 18.8605 25.0674 18.1047V17.0717H24.9541ZM18.0637 13.3809C18.0637 15.9632 19.3234 17.4874 21.4774 17.4874C23.6062 17.4874 24.9667 15.9884 24.9667 13.6077V11.2269C24.9667 9.12327 23.4677 7.59907 21.4018 7.59907C19.2982 7.59907 18.0637 9.14846 18.0637 11.7056V13.3809Z" fill="white"/>
<path d="M1.04553 19.3266C0.415697 19.3266 7.62939e-06 18.9613 7.62939e-06 18.3818C7.62939e-06 18.1299 0.0629908 17.8905 0.163764 17.5882L5.34098 3.11469C5.6559 2.23293 6.09678 1.82984 6.90296 1.82984C7.70915 1.82984 8.15003 2.23293 8.46495 3.11469L13.6422 17.5882C13.7429 17.8654 13.8059 18.1299 13.8059 18.3692C13.8059 18.9613 13.3902 19.3266 12.7478 19.3266C12.1432 19.3266 11.8031 19.0368 11.5637 18.2936L10.1151 13.9982H3.67823L2.22961 18.2936C1.99028 19.0494 1.65017 19.3266 1.04553 19.3266ZM4.27027 12.2221H9.52307L6.94075 4.56331H6.85258L4.27027 12.2221Z" fill="white"/>
<path d="M112.984 8.85697V16.2376L107.014 19.6897L101.044 16.2376V8.85697L107.014 5.40487L112.984 8.85697ZM103.176 10.0862V15.0075L107.013 17.2261L110.852 15.0075V10.0862L107.013 7.86756L103.176 10.0862Z" fill="white"/>
</svg>
