<svg width="189" height="36" viewBox="0 0 189 36" fill="none" xmlns="http://www.w3.org/2000/svg">
<path d="M172.927 27.4596C172.927 27.0817 173.059 26.6472 173.286 26.3448L178.557 18.8435L173.097 11.3989C172.889 11.1155 172.738 10.6242 172.738 10.2463C172.738 9.43385 173.399 8.77252 174.23 8.77252C174.854 8.77252 175.383 9.11263 175.836 9.79285L180.315 16.4439H180.522L185 9.81174C185.473 9.11263 185.945 8.79142 186.588 8.79142C187.438 8.79142 188.043 9.41495 188.043 10.2841C188.043 10.6431 187.929 10.9832 187.702 11.3044L182.28 18.8435L187.721 26.2881C187.948 26.5905 188.099 27.0439 188.099 27.4218C188.099 28.2532 187.438 28.9334 186.625 28.9334C185.983 28.9334 185.416 28.5744 184.982 27.9131L180.522 21.2432H180.315L175.969 27.8753C175.496 28.5933 175.005 28.9334 174.419 28.9334C173.588 28.9334 172.927 28.2721 172.927 27.4596Z" fill="white"/>
<path d="M145.208 28.9331C144.282 28.9331 143.602 28.3474 143.602 27.1192V3.29268C143.602 2.0645 144.282 1.47876 145.208 1.47876C146.134 1.47876 146.833 2.0645 146.833 3.29268V27.1192C146.833 28.3474 146.134 28.9331 145.208 28.9331Z" fill="white"/>
<path d="M130.602 29.0654C127.806 29.0654 125.595 27.8372 124.707 25.8155H124.537V27.157C124.537 28.2907 123.97 28.9331 122.968 28.9331C121.986 28.9331 121.419 28.2718 121.419 27.1192V3.29268C121.419 2.15898 122.024 1.47876 123.044 1.47876C124.064 1.47876 124.669 2.15898 124.669 3.29268V12.0221H124.839C125.444 9.96259 127.824 8.56437 130.715 8.56437C135.382 8.56437 138.33 11.8332 138.33 17.0482V20.5627C138.33 25.7966 135.345 29.0654 130.602 29.0654ZM124.669 20.6949C124.669 23.9071 126.899 26.2312 130.016 26.2312C133.21 26.2312 135.023 23.926 135.023 19.9202V17.8607C135.023 13.7983 133.172 11.3986 129.941 11.3986C126.71 11.3986 124.669 13.7038 124.669 17.3505V20.6949Z" fill="white"/>
<path d="M112.519 26.099C111.329 28.0263 109.307 29.0655 106.794 29.0655C102.921 29.0655 100.313 26.6092 100.313 22.9625C100.313 19.3535 102.94 17.105 107.304 17.105H112.557V15.1777C112.557 12.6269 111.027 11.3232 108.174 11.3232C106.492 11.3232 105.358 11.9089 104.168 13.2694C103.714 13.7984 103.28 13.9874 102.694 13.9874C101.938 13.9874 101.428 13.4772 101.428 12.7025C101.428 11.5877 102.203 10.4918 103.79 9.58484C104.942 8.92352 106.435 8.56451 108.381 8.56451C113.162 8.56451 115.807 10.9075 115.807 15.1589V27.1383C115.807 28.272 115.221 28.9333 114.22 28.9333C113.256 28.9333 112.689 28.2908 112.652 27.2138V26.099H112.519ZM103.639 22.8869C103.639 24.9464 105.264 26.3447 107.682 26.3447C110.422 26.3447 112.557 24.4552 112.557 21.9799V19.7314H107.474C105.037 19.7314 103.639 20.8651 103.639 22.8869Z" fill="white"/>
<path d="M89.6755 23.473V11.6447H88.2395C87.3136 11.6447 86.7279 11.1346 86.7279 10.2843C86.7279 9.43403 87.2948 8.90497 88.2395 8.90497H89.6944V5.63615C89.6944 4.50245 90.2991 3.84113 91.3005 3.84113C92.3208 3.84113 92.9255 4.50245 92.9255 5.63615V8.90497H95.5896C96.5344 8.90497 97.1012 9.43403 97.1012 10.2843C97.1012 11.1346 96.5155 11.6447 95.5896 11.6447H92.9443V23.5108C92.9443 25.627 93.4734 26.2505 95.3062 26.2505C95.8353 26.2505 96.2132 26.1939 96.5722 26.1939C97.3091 26.1939 97.8192 26.6662 97.8192 27.4031C97.8192 27.9322 97.5736 28.3668 96.9879 28.6502C96.4588 28.9147 95.7219 29.047 94.6449 29.047C91.0549 29.047 89.6755 27.611 89.6755 23.473Z" fill="white"/>
<path d="M69.8356 34.1861C69.8356 35.3198 69.231 36 68.2107 36C67.1903 36 66.5857 35.3198 66.5857 34.1861V10.5107C66.5857 9.3581 67.1525 8.69678 68.1351 8.69678C69.1176 8.69678 69.6845 9.33921 69.6845 10.4729V12.0412H69.8545C70.667 9.88716 72.9722 8.56451 75.8253 8.56451C80.4924 8.56451 83.44 11.8522 83.44 17.0483V20.5628C83.44 25.7967 80.4546 29.0655 75.712 29.0655C72.9722 29.0655 70.9126 27.8941 70.0057 25.8156H69.8356V34.1861ZM69.8356 20.7707C69.8356 24.0017 71.9897 26.2313 75.1073 26.2313C78.3195 26.2313 80.1712 23.9072 80.1712 19.8826V17.7286C80.1712 13.685 78.3195 11.3988 75.0128 11.3988C71.8196 11.3988 69.8356 13.5906 69.8356 17.2184V20.7707Z" fill="white"/>
<path d="M57.6864 26.099C56.496 28.0263 54.4742 29.0655 51.9612 29.0655C48.0877 29.0655 45.4802 26.6092 45.4802 22.9625C45.4802 19.3535 48.1066 17.105 52.4714 17.105H57.7242V15.1777C57.7242 12.6269 56.1937 11.3232 53.3405 11.3232C51.6589 11.3232 50.5252 11.9089 49.3348 13.2694C48.8813 13.7984 48.4467 13.9874 47.861 13.9874C47.1052 13.9874 46.595 13.4772 46.595 12.7025C46.595 11.5877 47.3697 10.4918 48.9569 9.58484C50.1095 8.92352 51.6022 8.56451 53.5484 8.56451C58.3288 8.56451 60.9741 10.9075 60.9741 15.1589V27.1383C60.9741 28.272 60.3883 28.9333 59.3869 28.9333C58.4233 28.9333 57.8564 28.2908 57.8186 27.2138V26.099H57.6864ZM48.8057 22.8869C48.8057 24.9464 50.4307 26.3447 52.8493 26.3447C55.589 26.3447 57.7242 24.4552 57.7242 21.9799V19.7314H52.6414C50.204 19.7314 48.8057 20.8651 48.8057 22.8869Z" fill="white"/>
<path d="M37.431 25.6076C36.8641 27.6105 34.37 29.0654 31.4413 29.0654C26.7931 29.0654 23.7888 25.7966 23.7888 20.8083V16.8404C23.7888 11.8332 26.8687 8.56437 31.5358 8.56437C34.3133 8.56437 36.5051 9.79254 37.2987 11.8143H37.4499V3.29268C37.4499 2.14008 38.0545 1.47876 39.0748 1.47876C40.0952 1.47876 40.6998 2.14008 40.6998 3.29268V27.1192C40.6998 28.2718 40.1519 28.9331 39.1504 28.9331C38.1679 28.9331 37.6199 28.2907 37.601 27.157V25.6076H37.431ZM27.0954 20.0714C27.0954 23.9449 28.9849 26.2312 32.216 26.2312C35.4092 26.2312 37.4499 23.9827 37.4499 20.4115V16.8404C37.4499 13.6849 35.2014 11.3986 32.1026 11.3986C28.9471 11.3986 27.0954 13.7227 27.0954 17.5584V20.0714Z" fill="white"/>
<path d="M1.56828 28.9898C0.623533 28.9898 0 28.4419 0 27.5727C0 27.1948 0.0944748 26.8358 0.245634 26.3823L8.01146 4.67204C8.48383 3.34939 9.14516 2.74475 10.3544 2.74475C11.5637 2.74475 12.225 3.34939 12.6974 4.67204L20.4632 26.3823C20.6144 26.798 20.7089 27.1948 20.7089 27.5538C20.7089 28.4419 20.0853 28.9898 19.1217 28.9898C18.2147 28.9898 17.7046 28.5553 17.3456 27.4405L15.1726 20.9973H5.51733L3.34441 27.4405C2.9854 28.5742 2.47524 28.9898 1.56828 28.9898ZM6.40539 18.3331H14.2846L10.4111 6.84496H10.2789L6.40539 18.3331Z" fill="white"/>
<path d="M166.59 24.0325L160.992 27.4255L160.268 27.8638L159.518 27.4714L153.992 24.5784L153.187 24.1578L153.188 23.2504L153.188 15.25L153.188 14.4244L153.885 13.9823L159.412 10.4827L160.209 9.97798L161.01 10.4784L166.607 13.9785L167.313 14.4186L167.312 15.2503L167.312 22.7502L167.312 23.5951L166.59 24.0325Z" stroke="white" stroke-width="3"/>
</svg>
