<svg width="15" height="14" viewBox="0 0 15 14" fill="none" xmlns="http://www.w3.org/2000/svg">
<path d="M2.24121 13.7021C1.80176 13.7021 1.41211 13.5967 1.07227 13.3857C0.738281 13.1748 0.474609 12.8994 0.28125 12.5596C0.09375 12.2197 0 11.8477 0 11.4434C0 11.0566 0.0966797 10.6904 0.290039 10.3447L5.56348 1.125C5.78027 0.755859 6.06152 0.477539 6.40723 0.290039C6.75879 0.0966797 7.125 0 7.50586 0C7.89258 0 8.25586 0.09375 8.5957 0.28125C8.94141 0.462891 9.22266 0.744141 9.43945 1.125L14.7129 10.3359C14.8125 10.5117 14.8857 10.6963 14.9326 10.8896C14.9795 11.0771 15.0029 11.2617 15.0029 11.4434C15.0029 11.8477 14.9092 12.2197 14.7217 12.5596C14.5342 12.8994 14.2705 13.1748 13.9307 13.3857C13.5967 13.5967 13.21 13.7021 12.7705 13.7021H2.24121ZM2.76855 11.5928H12.2432C12.3721 11.5928 12.4746 11.5488 12.5508 11.4609C12.627 11.373 12.665 11.2705 12.665 11.1533C12.665 11.083 12.6475 11.0156 12.6123 10.9512L7.85742 2.54883C7.82227 2.48438 7.77246 2.4375 7.70801 2.4082C7.64355 2.37891 7.57617 2.36426 7.50586 2.36426C7.44141 2.36426 7.37402 2.37891 7.30371 2.4082C7.23926 2.4375 7.18652 2.48145 7.14551 2.54004L2.39941 10.9336C2.36426 10.998 2.34668 11.0713 2.34668 11.1533C2.34668 11.2705 2.38477 11.373 2.46094 11.4609C2.54297 11.5488 2.64551 11.5928 2.76855 11.5928ZM7.51465 8.49023C6.94629 8.49023 6.64746 8.21484 6.61816 7.66406L6.50391 5.35254C6.48633 5.05957 6.57129 4.8252 6.75879 4.64941C6.94629 4.46777 7.19531 4.37695 7.50586 4.37695C7.81641 4.37695 8.06543 4.46777 8.25293 4.64941C8.44043 4.8252 8.52539 5.05957 8.50781 5.35254L8.38477 7.64648C8.35547 8.20898 8.06543 8.49023 7.51465 8.49023ZM7.51465 10.9424C7.21582 10.9424 6.96387 10.8633 6.75879 10.7051C6.55957 10.541 6.45996 10.3184 6.45996 10.0371C6.45996 9.75 6.55957 9.52734 6.75879 9.36914C6.96387 9.20508 7.21582 9.12305 7.51465 9.12305C7.81348 9.12305 8.05957 9.20508 8.25293 9.36914C8.45215 9.5332 8.55176 9.75586 8.55176 10.0371C8.55176 10.3184 8.45215 10.541 8.25293 10.7051C8.05957 10.8633 7.81348 10.9424 7.51465 10.9424Z" fill="#FF4B4B"/>
</svg>
